HIERARCHY
ROOT Pelvis
{
	OFFSET 0.000000 0.000000 0.000000
	CHANNELS 6 Xposition Yposition Zposition Xrotation Yrotation Zrotation
	JOINT LeftUpLeg_virtual
	{
		OFFSET 0.000000 0.000000 0.000000
		CHANNELS 3 Xrotation Yrotation Zrotation
		JOINT LeftUpLeg
		{
			OFFSET 18.735201 -5.666702 -4.541200
			CHANNELS 3 Xrotation Yrotation Zrotation
			JOINT LeftLeg
			{
				OFFSET -0.021200 -31.938179 0.493100
				CHANNELS 3 Xrotation Yrotation Zrotation
				JOINT LeftFoot
				{
					OFFSET 0.021200 -31.938179 -4.336299
					CHANNELS 3 Xrotation Yrotation Zrotation
					JOINT LeftToeBase
					{
						OFFSET 0.943001 -26.722000 15.023500
						CHANNELS 3 Xrotation Yrotation Zrotation
						End Site
						{
							OFFSET 0 0 0
						}
					}
				}
			}
		}
	}
	JOINT RightUpLeg_virtual
	{
		OFFSET 0.000000 0.000000 0.000000
		CHANNELS 3 Xrotation Yrotation Zrotation
		JOINT RightUpLeg
		{
			OFFSET -18.735201 -5.666702 -4.541200
			CHANNELS 3 Xrotation Yrotation Zrotation
			JOINT RightLeg
			{
				OFFSET 0.018946 -31.938133 0.493100
				CHANNELS 3 Xrotation Yrotation Zrotation
				JOINT RightFoot
				{
					OFFSET -0.018946 -31.938126 -4.336299
					CHANNELS 3 Xrotation Yrotation Zrotation
					JOINT RightToeBase
					{
						OFFSET -0.943001 -26.722004 15.023500
						CHANNELS 3 Xrotation Yrotation Zrotation
						End Site
						{
							OFFSET 0 0 0
						}
					}
				}
			}
		}
	}
	JOINT Hips_virtual
	{
		OFFSET 0.000000 0.000000 0.000000
		CHANNELS 3 Xrotation Yrotation Zrotation
		JOINT Hips
		{
			OFFSET -0.000000 -0.000000 -0.000000
			CHANNELS 3 Xrotation Yrotation Zrotation
			JOINT Spine
			{
				OFFSET 0.000000 10.199997 -0.299500
				CHANNELS 3 Xrotation Yrotation Zrotation
				JOINT Spine1
				{
					OFFSET 0.000000 11.900002 -1.516600
					CHANNELS 3 Xrotation Yrotation Zrotation
					JOINT Spine2
					{
						OFFSET 0.000000 13.600006 -2.842500
						CHANNELS 3 Xrotation Yrotation Zrotation
						JOINT Neck_virtual
						{
							OFFSET 0.000000 0.000000 0.000000
							CHANNELS 3 Xrotation Yrotation Zrotation
							JOINT Neck
							{
								OFFSET 0.000000 9.624100 -2.890100
								CHANNELS 3 Xrotation Yrotation Zrotation
								JOINT Head
								{
									OFFSET 0.000000 14.068802 -1.351900
									CHANNELS 3 Xrotation Yrotation Zrotation
									End Site
									{
										OFFSET 0 0 0
									}
								}
							}
						}
						JOINT LeftShoulder_virtual
						{
							OFFSET 0.000000 0.000000 0.000000
							CHANNELS 3 Xrotation Yrotation Zrotation
							JOINT LeftShoulder
							{
								OFFSET 15.263000 10.923401 -0.547700
								CHANNELS 3 Xrotation Yrotation Zrotation
								JOINT LeftArm
								{
									OFFSET 25.438599 -2.830597 -13.032500
									CHANNELS 3 Xrotation Yrotation Zrotation
									JOINT LeftForeArm
									{
										OFFSET 29.960503 0.000000 0.000000
										CHANNELS 3 Xrotation Yrotation Zrotation
										JOINT LeftHand
										{
											OFFSET 27.849251 0.000000 0.000000
											CHANNELS 3 Xrotation Yrotation Zrotation
											End Site
											{
												OFFSET 0 0 0
											}
										}
									}
								}
							}
						}
						JOINT RightShoulder_virtual
						{
							OFFSET 0.000000 0.000000 0.000000
							CHANNELS 3 Xrotation Yrotation Zrotation
							JOINT RightShoulder
							{
								OFFSET -15.263000 10.923401 -0.547700
								CHANNELS 3 Xrotation Yrotation Zrotation
								JOINT RightArm
								{
									OFFSET -25.438599 -2.830597 -13.032500
									CHANNELS 3 Xrotation Yrotation Zrotation
									JOINT RightForeArm
									{
										OFFSET -29.960503 0.000000 0.000000
										CHANNELS 3 Xrotation Yrotation Zrotation
										JOINT RightHand
										{
											OFFSET -27.849251 0.000000 0.000000
											CHANNELS 3 Xrotation Yrotation Zrotation
											End Site
											{
												OFFSET 0 0 0
											}
										}
									}
								}
							}
						}
					}
				}
			}
		}
	}
}
MOTION
Frames: 5
Frame Time: 0.03333333
-3.916342 83.270355 2.332138 0.000000 0.000000 0.000000 3.004777 -58.203245 6.441833 -38.301843 6.311069 29.650555 47.035790 -9.822859 -10.645411 -10.049959 -1.879521 -11.956708 0.000000 0.000000 0.000000 3.004777 -58.203245 6.441833 -34.545741 -3.812530 -30.706020 55.038976 4.468125 -7.825150 -22.928404 0.222264 25.857686 0.000000 0.000000 0.000000 3.004777 -58.203245 6.441833 0.000000 0.000000 0.000000 11.191378 0.081089 -2.661025 8.434585 0.027705 -5.592322 0.000000 0.000000 0.000000 8.457051 0.027864 -5.591870 -3.775665 5.323472 1.581315 0.000000 0.000000 0.000000 8.457051 0.027864 -5.591870 -6.221667 -11.503861 -4.023831 -23.062170 9.568536 -36.639607 0.046108 -43.169108 -0.011155 0.000000 0.000000 0.000000 8.457051 0.027864 -5.591870 -5.488232 10.658263 2.466534 -41.473800 -26.755596 30.079071 -155.044529 68.137018 156.691534 0.000000 0.000000 0.000000 
-3.960620 83.254120 2.421009 0.000000 0.000000 0.000000 3.135975 -58.289661 6.509156 -38.448808 6.106657 29.622749 47.424035 -9.684339 -10.554575 -10.059060 -1.860643 -12.056476 0.000000 0.000000 0.000000 3.135975 -58.289661 6.509156 -34.523659 -3.555508 -30.494455 55.035841 4.240900 -7.970333 -22.731764 0.186347 26.113073 0.000000 0.000000 0.000000 3.135975 -58.289661 6.509156 0.000000 -0.000002 0.000000 11.104968 0.110719 -2.625000 8.263423 0.094341 -5.514617 0.000000 0.000000 0.000000 8.285901 0.094477 -5.514153 -3.772316 5.212041 1.560805 0.000000 0.000000 0.000000 8.285901 0.094477 -5.514153 -5.880239 -11.203430 -4.136710 -23.070912 10.188963 -36.902549 -0.778786 -43.644035 -0.618941 0.000000 0.000000 0.000000 8.285901 0.094477 -5.514153 -5.152150 10.691583 2.515983 -41.675321 -27.395482 29.700357 -149.245043 66.526165 150.903631 0.000000 0.000000 0.000000 
-4.003000 83.183754 2.529594 0.000000 0.000000 0.000000 3.379490 -58.364547 6.698381 -38.730752 5.811504 29.498368 48.024030 -9.471955 -10.418690 -10.129870 -1.834342 -12.110971 0.000000 0.000000 0.000000 3.379490 -58.364547 6.698381 -34.628120 -3.148840 -30.268325 55.225044 3.935563 -8.145924 -22.546502 0.139553 26.367276 0.000000 0.000000 0.000000 3.379490 -58.364547 6.698381 0.000000 0.000001 0.000000 11.074245 0.148980 -2.593676 8.204039 0.173846 -5.448620 0.000000 0.000000 0.000000 8.226528 0.173966 -5.448152 -3.864570 5.036916 1.518927 0.000000 0.000000 0.000000 8.226528 0.173966 -5.448152 -5.861939 -10.946070 -4.243525 -22.790239 11.203489 -37.079407 -2.568624 -44.597471 -2.588018 0.000000 0.000000 0.000000 8.226528 0.173966 -5.448152 -5.219767 10.572300 2.900656 -41.870685 -28.266565 29.056055 -138.768434 62.896938 140.499846 0.000000 0.000000 0.000000 
-4.028625 82.852608 2.735748 0.000000 0.000000 0.000000 4.281406 -58.299121 7.568896 -39.795838 5.006703 28.960610 49.616646 -9.031773 -10.071578 -10.403748 -1.718616 -12.197992 0.000000 0.000000 0.000000 4.281406 -58.299121 7.568896 -35.389273 -1.981666 -30.112545 56.310894 3.395299 -8.393422 -22.307818 -0.027375 26.895712 0.000000 0.000000 0.000000 4.281406 -58.299121 7.568896 0.000000 -0.000001 0.000000 10.961419 0.230697 -2.535930 7.982662 0.345529 -5.338386 0.000000 0.000000 0.000000 8.005109 0.345661 -5.337922 -4.055843 4.524537 1.374765 0.000000 0.000000 0.000000 8.005109 0.345661 -5.337922 -5.789408 -10.906025 -4.641799 -21.919117 12.280441 -36.434637 -4.904232 -45.766034 -6.428686 0.000000 0.000000 0.000000 8.005109 0.345661 -5.337922 -5.486564 9.961642 4.839513 -42.348136 -30.087338 26.396238 -123.186532 54.213776 124.248504 0.000000 0.000000 0.000000 
-3.944818 82.070992 3.030300 0.000000 0.000000 0.000000 5.897590 -57.559411 9.217588 -42.019587 3.694602 27.693087 52.412505 -8.628254 -9.495519 -11.547143 -1.510997 -11.918630 0.000000 0.000000 0.000000 5.897590 -57.559411 9.217588 -36.724056 -0.527082 -30.400185 58.783634 2.487519 -8.438577 -23.532613 -0.483786 27.057458 0.000000 0.000000 0.000000 5.897590 -57.559411 9.217588 0.000000 0.000001 0.000000 10.720844 0.272248 -2.456863 7.504366 0.450201 -5.210274 0.000000 0.000000 0.000000 7.526827 0.450367 -5.209822 -4.220683 3.562887 1.134451 0.000000 0.000000 0.000000 7.526827 0.450367 -5.209822 -5.634150 -11.237061 -5.559532 -20.515194 12.770358 -34.844634 -5.912249 -46.732912 -10.381368 0.000000 0.000000 0.000000 7.526827 0.450367 -5.209822 -5.902313 9.350172 9.352207 -44.309158 -32.041920 18.078198 -104.841785 36.379182 107.426008 0.000000 0.000000 0.000000 
